<svg width="56" height="56" viewBox="0 0 56 56" fill="none" xmlns="http://www.w3.org/2000/svg">
  <defs>
    <radialGradient id="haloBlue" cx="50%" cy="50%" r="50%" fx="55%" fy="38%">
      <stop offset="0%" stop-color="#B3E5FC"/>
      <stop offset="55%" stop-color="#2196F3"/>
      <stop offset="100%" stop-color="#0D47A1"/>
    </radialGradient>
    <linearGradient id="orange" x1="28" y1="0" x2="28" y2="56" gradientUnits="userSpaceOnUse">
      <stop stop-color="#FFA000"/>
      <stop offset="1" stop-color="#FF5722"/>
    </linearGradient>
    <linearGradient id="cupOrange" x1="28" y1="20" x2="28" y2="48" gradientUnits="userSpaceOnUse">
      <stop stop-color="#FFD54F"/>
      <stop offset="1" stop-color="#FFA000"/>
    </linearGradient>
    <linearGradient id="baseOrange" x1="28" y1="44" x2="28" y2="53" gradientUnits="userSpaceOnUse">
      <stop stop-color="#FFA000"/>
      <stop offset="1" stop-color="#FF5722"/>
    </linearGradient>
  </defs>
  <!-- Couronne orange sobre -->
  <g>
    <path d="M18 10 L28 4 L38 10 L36 18 L20 18 Z" fill="url(#orange)" stroke="#FFA000" stroke-width="1.4"/>
    <circle cx="28" cy="8" r="1.6" fill="#FFD54F" stroke="#FFA000" stroke-width="0.7"/>
  </g>
  <!-- Ailes robotiques -->
  <g>
    <path d="M6 28 Q0 20 14 14 Q18 12 23 14" stroke="#2196F3" stroke-width="2.4" fill="none"/>
    <path d="M50 28 Q56 20 42 14 Q38 12 33 14" stroke="#2196F3" stroke-width="2.4" fill="none"/>
    <path d="M8 38 Q2 44 18 48 Q22 50 25 46" stroke="#2196F3" stroke-width="1.7" fill="none"/>
    <path d="M48 38 Q54 44 38 48 Q34 50 31 46" stroke="#2196F3" stroke-width="1.7" fill="none"/>
  </g>
  <!-- Cercle principal -->
  <circle cx="28" cy="32" r="20" fill="url(#haloBlue)" stroke="url(#orange)" stroke-width="2.3"/>
  <!-- Coupe trophée stylisée avec socle -->
  <g>
    <!-- Anses -->
    <path d="M16 32 Q10 26 18 22" stroke="#FFA000" stroke-width="2.2" fill="none"/>
    <path d="M40 32 Q46 26 38 22" stroke="#FFA000" stroke-width="2.2" fill="none"/>
    <!-- Coupe principale -->
    <path d="M18 22 Q28 14 38 22 Q38 32 28 36 Q18 32 18 22 Z" fill="url(#cupOrange)" stroke="#FFA000" stroke-width="1.6"/>
    <!-- Pied -->
    <rect x="24.5" y="36.5" width="7" height="7" rx="2.2" fill="#FFA000" stroke="#FF5722" stroke-width="0.9"/>
    <!-- Socle -->
    <rect x="22" y="43.5" width="12" height="5" rx="2.2" fill="url(#baseOrange)" stroke="#FF9800" stroke-width="1.1"/>
    <!-- Reflet -->
    <ellipse cx="28" cy="26" rx="5" ry="2" fill="#FFD54F" opacity="0.5"/>
  </g>
</svg>
